<svg id="Capa_1" enable-background="new 0 0 512 512" height="512" viewBox="0 0 512 512" width="512" xmlns="http://www.w3.org/2000/svg"><g><path d="m137.551 0-79.116 79.117v432.883h395.131v-512zm8.174 34.253v53.037h-53.037zm277.84 447.747h-335.13v-364.71h87.29v-87.29h247.841v452z"/><path d="m161.211 189.476v29.327l-14.664 25.399 14.664 25.398v29.327l16.783 9.689-33.004 125.304 47.336-3.044 39.696 25.967 23.978-91.033 23.977 91.034 39.696-25.967 47.336 3.044-33.004-125.304 16.783-9.689v-29.327l14.664-25.398-14.664-25.399v-29.327l-25.398-14.663-14.664-25.399h-29.328l-25.398-14.665-25.398 14.663h-29.328l-14.664 25.399zm39.171 210.821-15.779 1.015 16.495-62.626.176.305h29.328l1.249.721-18.237 69.242zm111.236 0-13.232 8.656-18.237-69.242 1.249-.721h29.328l.176-.305 16.495 62.626zm-120.407-193.501 17.36-10.022 10.022-17.36h20.045l17.362-10.023 17.36 10.022h20.045l10.022 17.36 17.36 10.022v20.046l10.023 17.36-10.023 17.359v20.046l-17.36 10.022-10.023 17.36h-20.044l-17.36 10.025-17.36-10.022h-20.045l-10.023-17.36-17.36-10.022v-20.046l-10.023-17.359 10.023-17.36v-20.048z"/><path d="m241 229.202h30v30h-30z"/></g></svg>