<svg id="Capa_1" enable-background="new 0 0 512 512" height="512" viewBox="0 0 512 512" width="512" xmlns="http://www.w3.org/2000/svg"><g><g><path d="m146.53 75.584v29.15l-34.215 4.027-34.215-4.027v-29.15c0-9.1 7.38-16.47 16.48-16.47h35.47c9.11 0 16.48 7.37 16.48 16.47z" fill="#b6c4cf"/><path d="m146.53 75.584v29.15l-15.03 4.027-15.16-4.027v-29.15c0-9.1-7.38-16.47-16.48-16.47h30.19c9.11 0 16.48 7.37 16.48 16.47z" fill="#8d9ca8"/><path d="m434.5 75.584v29.15l-34.215 9.27-34.215-9.27v-29.15c0-9.1 7.38-16.47 16.48-16.47h35.47c9.1 0 16.48 7.37 16.48 16.47z" fill="#b6c4cf"/><path d="m434.5 75.584v29.15l-14.865 4.027-15.335-4.027v-29.15c0-9.1-7.37-16.47-16.47-16.47h30.19c9.1 0 16.48 7.37 16.48 16.47z" fill="#8d9ca8"/><path d="m504.5 136.404v73.23l-237.162 8.37-259.838-8.37v-73.23c0-17.5 14.18-31.67 31.67-31.67h433.66c17.49 0 31.67 14.17 31.67 31.67z" fill="#02c7dd"/><path d="m504.5 136.404v73.23l-16.5 8.37-16.15-8.37v-73.23c0-17.5-14.18-31.67-31.67-31.67h32.65c17.49 0 31.67 14.17 31.67 31.67z" fill="#07b2cd"/><path d="m504.5 209.634v211.59c0 17.5-14.18 31.67-31.67 31.67h-433.66c-17.49 0-31.67-14.17-31.67-31.67v-211.59z" fill="#eaf6ff"/><path d="m504.5 209.634v211.59c0 17.5-14.18 31.67-31.67 31.67h-32.65c17.49 0 31.67-14.17 31.67-31.67v-211.59z" fill="#c8effe"/><path d="m187.151 144.827h137.698v24.715h-137.698z" fill="#c8effe"/><g fill="#62dbfb"><path d="m187.151 251.371h58.845v35.015h-58.845z"/><path d="m288.68 251.371h58.845v35.015h-58.845z"/><path d="m390.21 251.371h58.845v35.015h-58.845z"/><path d="m187.151 326.377h58.845v35.015h-58.845z"/><path d="m288.68 326.377h58.845v35.015h-58.845z"/><path d="m390.21 326.377h58.845v35.015h-58.845z"/></g><path d="m62.91 251.374h79.28v110.02h-79.28z" fill="#fedf30"/><path d="m112.32 251.374h29.87v110.02h-29.87z" fill="#fed402"/></g><g><path d="m472.83 97.225h-30.83v-21.642c0-13.221-10.756-23.978-23.978-23.978h-35.475c-13.222 0-23.978 10.756-23.978 23.978v21.642h-204.537v-21.642c0-13.221-10.756-23.978-23.978-23.978h-35.473c-13.221 0-23.978 10.756-23.978 23.978v21.642h-31.433c-21.598 0-39.17 17.572-39.17 39.171v284.829c0 21.599 17.572 39.17 39.17 39.17h27.365c4.142 0 7.5-3.358 7.5-7.5s-3.358-7.5-7.5-7.5h-27.365c-13.328 0-24.17-10.843-24.17-24.17v-204.099h397.175c4.143 0 7.5-3.358 7.5-7.5s-3.357-7.5-7.5-7.5h-397.175v-65.73c0-13.328 10.843-24.17 24.17-24.17h433.66c13.327 0 24.17 10.843 24.17 24.17v65.73h-48.944c-4.143 0-7.5 3.358-7.5 7.5s3.357 7.5 7.5 7.5h48.944v204.098c0 13.328-10.843 24.17-24.17 24.17h-370.881c-4.142 0-7.5 3.358-7.5 7.5s3.358 7.5 7.5 7.5h370.881c21.599 0 39.17-17.572 39.17-39.17v-284.828c0-21.599-17.571-39.171-39.17-39.171zm-387.227 0v-21.642c0-4.95 4.027-8.978 8.978-8.978h35.474c4.95 0 8.978 4.027 8.978 8.978v21.642zm287.967 0v-21.642c0-4.95 4.027-8.978 8.978-8.978h35.475c4.95 0 8.978 4.027 8.978 8.978v21.642z"/><path d="m187.151 137.318c-4.142 0-7.5 3.358-7.5 7.5v24.715c0 4.142 3.358 7.5 7.5 7.5h137.698c4.143 0 7.5-3.358 7.5-7.5v-24.715c0-4.142-3.357-7.5-7.5-7.5zm130.198 24.715h-122.698v-9.715h122.698z"/><path d="m187.151 293.882h58.845c4.142 0 7.5-3.358 7.5-7.5v-35.016c0-4.142-3.358-7.5-7.5-7.5h-58.845c-4.142 0-7.5 3.358-7.5 7.5v35.016c0 4.142 3.358 7.5 7.5 7.5zm7.5-35.015h43.845v20.016h-43.845z"/><path d="m288.681 293.882h58.845c4.143 0 7.5-3.358 7.5-7.5v-35.016c0-4.142-3.357-7.5-7.5-7.5h-58.845c-4.143 0-7.5 3.358-7.5 7.5v35.016c0 4.142 3.357 7.5 7.5 7.5zm7.5-35.015h43.845v20.016h-43.845z"/><path d="m390.21 293.882h58.846c4.143 0 7.5-3.358 7.5-7.5v-35.016c0-4.142-3.357-7.5-7.5-7.5h-58.846c-4.143 0-7.5 3.358-7.5 7.5v35.016c0 4.142 3.357 7.5 7.5 7.5zm7.5-35.015h43.846v20.016h-43.846z"/><path d="m179.651 361.388c0 4.142 3.358 7.5 7.5 7.5h58.845c4.142 0 7.5-3.358 7.5-7.5v-35.015c0-4.142-3.358-7.5-7.5-7.5h-58.845c-4.142 0-7.5 3.358-7.5 7.5zm15-27.515h43.845v20.015h-43.845z"/><path d="m281.181 361.388c0 4.142 3.357 7.5 7.5 7.5h58.845c4.143 0 7.5-3.358 7.5-7.5v-35.015c0-4.142-3.357-7.5-7.5-7.5h-58.845c-4.143 0-7.5 3.358-7.5 7.5zm15-27.515h43.845v20.015h-43.845z"/><path d="m382.71 361.388c0 4.142 3.357 7.5 7.5 7.5h58.846c4.143 0 7.5-3.358 7.5-7.5v-35.015c0-4.142-3.357-7.5-7.5-7.5h-58.846c-4.143 0-7.5 3.358-7.5 7.5zm15-27.515h43.846v20.015h-43.846z"/><path d="m187.151 419.016h160.375c4.143 0 7.5-3.358 7.5-7.5s-3.357-7.5-7.5-7.5h-160.375c-4.142 0-7.5 3.358-7.5 7.5s3.358 7.5 7.5 7.5z"/><path d="m390.21 417.984h58.846c4.143 0 7.5-3.358 7.5-7.5s-3.357-7.5-7.5-7.5h-58.846c-4.143 0-7.5 3.358-7.5 7.5s3.357 7.5 7.5 7.5z"/><path d="m62.908 298.086c-4.142 0-7.5 3.358-7.5 7.5v55.802c0 4.142 3.358 7.5 7.5 7.5h79.285c4.142 0 7.5-3.358 7.5-7.5v-110.021c0-4.142-3.358-7.5-7.5-7.5h-79.285c-4.142 0-7.5 3.358-7.5 7.5v18.443c0 4.142 3.358 7.5 7.5 7.5s7.5-3.358 7.5-7.5v-10.943h64.285v95.021h-64.285v-48.302c0-4.142-3.358-7.5-7.5-7.5z"/></g></g></svg>