<svg id="Capa_1" enable-background="new 0 0 512 512" height="512" viewBox="0 0 512 512" width="512" xmlns="http://www.w3.org/2000/svg"><g><path d="m467 121h-106v-75c0-8.284-6.716-15-15-15h-180c-8.284 0-15 6.716-15 15v75h-106c-24.813 0-45 20.187-45 45v300c0 8.284 6.716 15 15 15h482c8.284 0 15-6.716 15-15v-300c0-24.813-20.187-45-45-45zm-286-60h150v60h-150zm-151 105c0-8.271 6.729-15 15-15h422c8.271 0 15 6.729 15 15v30c0 74.439-61.009 135-136 135h-180c-74.991 0-136-60.561-136-135zm452 285h-452v-160.502c30.048 42.596 79.804 70.502 136 70.502h180c56.196 0 105.952-27.906 136-70.503z"/><path d="m226 301h60c8.284 0 15-6.716 15-15s-6.716-15-15-15h-60c-8.284 0-15 6.716-15 15s6.716 15 15 15z"/></g></svg>